PathFileType	4	(X/Y/Z)	C:\Users\Willi\Documents\UniDataLokal\DATA_Hans_PhD\TD05\3DGAIT_C_W31\marker_experimental.trc
DataRate	CameraRate	NumFrames	NumMarkers	Units	OrigDataRate	OrigDataStartFrame	OrigNumFrames
100.000000	100.000000	4	85	mm	100.000000	0	200
Frame#	Time	RBAK			C7			CLAV			T10			STRN			RASI			RPSI			LPSI			LASI			LPELV			RPELV			RTHI1			RTHI2			RTHI3			RTHI			RKNE			RPAT			RLKNEL			RLKNEM			RLPAT			RTIB1			RTIB2			RTIB3			RTIB			RANK			RHEEL			RTOE			RM5			LTHI1			LTHI2			LTHI3			LTHI			LKNE			LPAT			LLKNE			LLKNEM			LLPAT			LTIB1			LTIB2			LTIB3			LTIB			LANK			LHEEL			LTOE			LM5			*45			*46			*47			*48			*49			*50			*51			*52			*53			*54			*55			*56			*57			*58			*59			*60			*61			*62			*63			*64			*65			*66			*67			*68			*69			*70			*71			*72			*73			*74			*75			*76			*77			*78			*79			*80			*81			*82			*83			*84			
		X1	Y1	Z1	X2	Y2	Z2	X3	Y3	Z3	X4	Y4	Z4	X5	Y5	Z5	X6	Y6	Z6	X7	Y7	Z7	X8	Y8	Z8	X9	Y9	Z9	X10	Y10	Z10	X11	Y11	Z11	X12	Y12	Z12	X13	Y13	Z13	X14	Y14	Z14	X15	Y15	Z15	X16	Y16	Z16	X17	Y17	Z17	X18	Y18	Z18	X19	Y19	Z19	X20	Y20	Z20	X21	Y21	Z21	X22	Y22	Z22	X23	Y23	Z23	X24	Y24	Z24	X25	Y25	Z25	X26	Y26	Z26	X27	Y27	Z27	X28	Y28	Z28	X29	Y29	Z29	X30	Y30	Z30	X31	Y31	Z31	X32	Y32	Z32	X33	Y33	Z33	X34	Y34	Z34	X35	Y35	Z35	X36	Y36	Z36	X37	Y37	Z37	X38	Y38	Z38	X39	Y39	Z39	X40	Y40	Z40	X41	Y41	Z41	X42	Y42	Z42	X43	Y43	Z43	X44	Y44	Z44	X45	Y45	Z45	X46	Y46	Z46	X47	Y47	Z47	X48	Y48	Z48	X49	Y49	Z49	X50	Y50	Z50	X51	Y51	Z51	X52	Y52	Z52	X53	Y53	Z53	X54	Y54	Z54	X55	Y55	Z55	X56	Y56	Z56	X57	Y57	Z57	X58	Y58	Z58	X59	Y59	Z59	X60	Y60	Z60	X61	Y61	Z61	X62	Y62	Z62	X63	Y63	Z63	X64	Y64	Z64	X65	Y65	Z65	X66	Y66	Z66	X67	Y67	Z67	X68	Y68	Z68	X69	Y69	Z69	X70	Y70	Z70	X71	Y71	Z71	X72	Y72	Z72	X73	Y73	Z73	X74	Y74	Z74	X75	Y75	Z75	X76	Y76	Z76	X77	Y77	Z77	X78	Y78	Z78	X79	Y79	Z79	X80	Y80	Z80	X81	Y81	Z81	X82	Y82	Z82	X83	Y83	Z83	X84	Y84	Z84	X85	Y85	Z85	

1	0	-864.0134277343751	1280.197021484375	-121.3891220092775	-810.6561279296876	1369.691162109375	-274.5153808593752	-714.6872558593751	1272.152954101562	-273.4909057617189	-870.6643066406251	1047.380615234375	-275.5873107910158	-663.0166625976564	1040.538452148438	-274.0456848144532	-681.3225708007812	879.4873046875	-156.889862060547	-867.0856323242188	905.633544921875	-204.9768829345705	-874.4066162109374	907.0043334960938	-316.2240295410158	-693.3867187499999	888.720458984375	-397.0516662597657	-779.1344604492188	929.613525390625	-437.6935119628908	-765.0673217773439	930.1807250976562	-108.5352096557619	-644.2173461914062	599.6821899414062	-85.05674743652355	-585.1111450195312	574.6505126953125	-119.8106079101564	-602.4371948242188	507.9021301269531	-107.2356109619142	-658.46484375	502.4607238769531	-70.16519927978528	-629.1155395507812	433.4728088378906	-116.0479660034181	-542.78857421875	447.4576416015624	-147.7144470214845	-631.4988403320312	390.6452941894531	-122.5748291015626	-587.17626953125	398.9421081542968	-229.1423950195314	-563.8145141601562	380.5740966796874	-141.6018371582032	-562.1333618164062	259.7769775390624	-132.9216461181642	-602.4407348632812	204.8786315917968	-124.5091094970704	-548.8602294921875	170.2059478759765	-146.3692169189454	-641.1399536132812	125.6287155151367	-133.7226104736329	-586.496826171875	68.07314300537105	-160.5146484375001	-584.045654296875	31.92833137512203	-224.1772766113282	-457.6011047363281	42.79409408569333	-93.15563964843759	-500.0541687011719	11.97166919708249	-77.78733062744149	-745.9130859374999	595.7388305664062	-418.7816772460939	-722.4020996093749	546.428955078125	-385.0298156738282	-772.1807861328124	504.2115783691406	-399.9842834472657	-815.0856933593749	513.4495239257812	-439.012420654297	-822.1213989257811	446.1825561523437	-389.5816040039064	-755.8442993164061	420.2256164550781	-336.9016418457032	-838.0310058593749	398.8947753906249	-382.2372436523439	-833.6485595703125	405.7210388183593	-263.822967529297	-793.0347900390624	367.6783142089843	-340.2079467773439	-825.6049804687499	278.3102416992187	-342.7135314941408	-880.8895263671874	242.8224334716796	-370.9216308593752	-857.1633911132811	183.4518280029296	-331.4540100097658	-957.8158569335936	175.6876525878906	-368.1898803710939	-936.3080444335936	72.22137451171869	-314.8581542968752	-960.3731689453125	35.93603515624994	-255.615432739258	-800.1461181640624	27.15087127685542	-353.4873352050783	-848.5358276367186	11.83798599243159	-379.7499389648439	nan	nan	nan	nan	nan	nan	nan	nan	nan	nan	nan	nan	nan	nan	nan	nan	nan	nan	nan	nan	nan	nan	nan	nan	nan	nan	nan	nan	nan	nan	nan	nan	nan	nan	nan	nan	nan	nan	nan	nan	nan	nan	nan	nan	nan	nan	nan	nan	nan	nan	nan	nan	nan	nan	nan	nan	nan	nan	nan	nan	nan	nan	nan	nan	nan	nan	nan	nan	nan	nan	nan	nan	nan	nan	nan	nan	nan	nan	nan	nan	nan	nan	nan	nan	nan	nan	nan	nan	nan	nan	nan	nan	nan	nan	nan	nan	nan	nan	nan	nan	nan	nan	nan	nan	nan	nan	nan	nan	nan	nan	nan	nan	nan	nan	nan	nan	nan	nan	nan	nan	
2	0.01	-854.8592529296876	1278.477416992188	-121.2324523925783	-801.7077636718751	1368.050170898438	-274.3125915527345	-705.3992309570314	1270.66845703125	-273.4381103515626	-861.3925170898439	1045.853759765625	-274.7097473144533	-653.7553100585939	1038.735229492188	-274.0522460937501	-671.6044921875	877.591796875	-157.0610351562501	-857.71826171875	904.434814453125	-203.9127502441408	-865.8901977539061	906.1472778320312	-315.0648498535158	-685.3959350585936	887.1189575195312	-397.1842346191407	-771.107666015625	928.4336547851562	-437.477508544922	-754.6418457031251	928.6600952148438	-108.2540283203126	-637.4727172851562	596.5009765625	-86.30954742431652	-578.4744262695312	571.2456665039062	-121.0555648803712	-596.4342651367188	504.5498962402343	-109.1493148803712	-652.834228515625	499.2619018554687	-72.46800231933605	-622.659423828125	430.5857238769531	-118.6515579223634	-536.6532592773438	445.7268371582031	-150.2542114257813	-623.4819946289062	387.8835754394531	-124.9021911621095	-579.0888061523438	396.8453063964843	-231.5794830322267	-555.026123046875	380.1965026855468	-143.4694824218751	-547.5269775390625	260.5277099609374	-133.2669219970704	-584.9508056640625	204.3849487304687	-124.1588516235353	-529.6885986328125	171.5133056640625	-145.1313781738282	-619.3967895507812	123.1948776245117	-132.198455810547	-561.8413696289062	67.43824768066403	-157.7465209960939	-558.0360717773438	31.23243522644039	-221.2209472656251	-430.6813659667969	46.70814514160153	-92.06531524658212	-471.3179626464844	13.9237718582153	-76.08766937255868	-740.3536987304686	594.5967407226562	-418.5808715820314	-717.1414184570311	545.1011352539062	-384.8421325683595	-767.2806396484374	503.3188781738281	-399.7049560546876	-810.1467895507811	512.8196411132812	-438.7015991210939	-817.6862182617186	445.6076049804687	-389.1900939941408	-751.5094604492186	419.0200195312499	-336.7943115234376	-834.0646362304686	398.4743652343749	-381.8528137207033	-829.3800659179688	405.3158264160156	-263.4447326660158	-789.2593383789061	366.7837524414062	-339.9683532714845	-822.7739868164061	277.6683044433593	-342.3325805664064	-878.5801391601561	242.8162384033203	-370.4621582031252	-855.4126586914061	183.2017364501953	-331.018768310547	-956.1038818359374	176.5751037597656	-367.6715393066408	-935.6889038085936	72.86674499511713	-314.3276367187502	-960.0355834960938	36.71417236328119	-255.074172973633	-800.1330566406249	27.15893936157222	-353.3918457031252	-848.6383666992186	11.97512245178218	-379.4263610839845	nan	nan	nan	nan	nan	nan	nan	nan	nan	nan	nan	nan	nan	nan	nan	nan	nan	nan	nan	nan	nan	nan	nan	nan	nan	nan	nan	nan	nan	nan	nan	nan	nan	nan	nan	nan	nan	nan	nan	nan	nan	nan	nan	nan	nan	nan	nan	nan	nan	nan	nan	nan	nan	nan	nan	nan	nan	nan	nan	nan	nan	nan	nan	nan	nan	nan	nan	nan	nan	nan	nan	nan	nan	nan	nan	nan	nan	nan	nan	nan	nan	nan	nan	nan	nan	nan	nan	nan	nan	nan	nan	nan	nan	nan	nan	nan	nan	nan	nan	nan	nan	nan	nan	nan	nan	nan	nan	nan	nan	nan	nan	nan	nan	nan	nan	nan	nan	nan	nan	nan	
3	0.02	-845.5723876953126	1276.852783203125	-120.9299240112306	-792.6774902343751	1366.526611328125	-273.9759826660158	-696.0354614257814	1269.298950195312	-273.2825927734376	-851.9901733398439	1044.411254882812	-273.7503662109377	-644.3547363281251	1037.057250976562	-273.991668701172	-661.731201171875	875.7269897460938	-157.1683349609376	-848.1806640625	903.2587890625	-202.7437286376955	-857.2142333984374	905.2962036132812	-313.7818603515627	-677.2518310546874	885.5892333984375	-397.2613525390626	-763.0225219726561	927.2923583984375	-437.1058349609376	-744.2557373046875	927.115478515625	-107.8837127685548	-630.4912109375	593.40966796875	-87.49356079101574	-571.66845703125	567.895751953125	-122.2987747192384	-590.2657470703125	501.2645568847656	-110.9416503906251	-647.0698852539062	496.1678161621093	-74.58750152587902	-616.0571899414062	427.8054809570312	-121.0164642333986	-530.4071655273438	444.0070495605468	-152.7552795410157	-615.4982299804688	385.2720642089843	-126.997283935547	-571.2947998046875	394.7054443359374	-233.9030761718751	-546.414306640625	379.6803283691406	-145.3426666259767	-533.7276611328125	261.1416625976562	-133.7094116210938	-568.5161743164062	203.9462432861328	-123.8579330444337	-511.8373413085938	172.7728576660156	-144.1747131347657	-599.0625	121.3365478515625	-130.7462768554689	-539.008056640625	67.17636871337888	-155.216766357422	-533.9349365234375	30.77500534057614	-218.5066223144532	-405.8113403320312	51.34997177124021	-90.97982788085945	-444.7382507324219	16.81204414367673	-74.41452026367196	-734.6748046874999	593.52734375	-418.3978271484376	-711.7364501953124	543.8287963867188	-384.7315673828126	-762.2422485351561	502.4828491210937	-399.4631347656251	-805.1119995117186	512.26513671875	-438.3783264160158	-813.0805053710936	445.0853881835937	-388.8106994628908	-746.9984741210936	417.8472900390624	-336.7410888671876	-829.9246826171874	398.1122741699218	-381.4964599609377	-824.874267578125	404.9145507812499	-263.085662841797	-785.3230590820311	365.9259338378906	-339.7679443359377	-819.8079223632811	277.1013488769531	-342.0155334472658	-876.1832885742186	242.936538696289	-370.058807373047	-853.5852050781249	183.067886352539	-330.650604248047	-954.3576660156249	177.6121520996093	-367.1493225097658	-935.0474243164061	73.64471435546869	-313.8399963378908	-959.6737060546875	37.65377044677729	-254.5538940429689	-800.1285400390624	27.17194557189936	-353.3060607910158	-848.7589721679686	12.11405086517329	-379.1122131347658	nan	nan	nan	nan	nan	nan	nan	nan	nan	nan	nan	nan	nan	nan	nan	nan	nan	nan	nan	nan	nan	nan	nan	nan	nan	nan	nan	nan	nan	nan	nan	nan	nan	nan	nan	nan	nan	nan	nan	nan	nan	nan	nan	nan	nan	nan	nan	nan	nan	nan	nan	nan	nan	nan	nan	nan	nan	nan	nan	nan	nan	nan	nan	nan	nan	nan	nan	nan	nan	nan	nan	nan	nan	nan	nan	nan	nan	nan	nan	nan	nan	nan	nan	nan	nan	nan	nan	nan	nan	nan	nan	nan	nan	nan	nan	nan	nan	nan	nan	nan	nan	nan	nan	nan	nan	nan	nan	nan	nan	nan	nan	nan	nan	nan	nan	nan	nan	nan	nan	nan	
4	0.03	-836.1531372070314	1275.326416015625	-120.4816360473634	-783.5652465820314	1365.12255859375	-273.5061035156252	-686.5958862304689	1268.04736328125	-273.0242919921876	-842.4577636718751	1043.056030273438	-272.7113342285158	-634.8150024414064	1035.509399414062	-273.8641357421876	-651.701416015625	873.9036865234375	-157.212615966797	-838.4721069335938	902.1128540039062	-201.4727935791017	-848.3749999999999	904.454833984375	-312.3793945312502	-668.9490966796874	884.1343383789062	-397.2825927734376	-754.8717651367186	926.191650390625	-436.5803222656251	-733.880859375	925.5609130859375	-107.4243927001954	-623.2401123046875	590.430419921875	-88.60803222656261	-564.66357421875	564.6222534179688	-123.5498428344728	-583.9007568359375	498.0671997070312	-112.6102523803712	-641.1063232421875	493.2052917480468	-76.49871826171886	-609.2947387695312	425.1420593261718	-123.1284027099611	-524.0339965820312	442.2876892089843	-155.2051086425782	-607.5421142578125	382.8137512207031	-128.8444213867189	-563.7940063476562	392.5231933593749	-236.0966949462892	-537.97509765625	379.0204772949218	-147.2065429687501	-520.7283935546875	261.6000976562499	-134.2398681640626	-553.1372680664062	203.5281982421875	-123.6067810058595	-495.3067932128906	173.9301605224609	-143.5063934326173	-580.1801147460938	119.9463195800781	-129.3515472412111	-518.0313720703125	67.19877624511716	-152.9552612304688	-511.8182678222656	30.47278976440426	-216.0793914794923	-383.0525512695312	56.50006866455076	-89.99089813232429	-420.401611328125	20.42894935607908	-72.84345245361335	-728.8649291992186	592.5346069335938	-418.2337646484376	-706.1752319335936	542.6159057617188	-384.7019042968751	-757.0532836914061	501.7072753906249	-399.261932373047	-799.9703979492186	511.7905578613281	-438.045867919922	-808.2919921874999	444.6192626953124	-388.4488220214845	-742.2980957031249	416.7106323242187	-336.7467651367189	-825.6000366210936	397.8109130859374	-381.1714172363283	-820.1113891601562	404.5140075683593	-262.754119873047	-781.2168579101561	365.1074523925781	-339.6087341308595	-816.7026977539061	276.6104736328124	-341.7644958496095	-873.6894531249999	243.186538696289	-369.7176208496095	-851.6784057617186	183.0531616210937	-330.3539428710939	-952.5612792968749	178.8051147460937	-366.6423339843752	-934.3787231445311	74.56434631347651	-313.4085693359377	-959.292236328125	38.76786804199213	-254.0762786865236	-800.1284790039061	27.1848583221435	-353.2277221679689	-848.8884277343749	12.25159645080561	-378.8147888183595	nan	nan	nan	nan	nan	nan	nan	nan	nan	nan	nan	nan	nan	nan	nan	nan	nan	nan	nan	nan	nan	nan	nan	nan	nan	nan	nan	nan	nan	nan	nan	nan	nan	nan	nan	nan	nan	nan	nan	nan	nan	nan	nan	nan	nan	nan	nan	nan	nan	nan	nan	nan	nan	nan	nan	nan	nan	nan	nan	nan	nan	nan	nan	nan	nan	nan	nan	nan	nan	nan	nan	nan	nan	nan	nan	nan	nan	nan	nan	nan	nan	nan	nan	nan	nan	nan	nan	nan	nan	nan	nan	nan	nan	nan	nan	nan	nan	nan	nan	nan	nan	nan	nan	nan	nan	nan	nan	nan	nan	nan	nan	nan	nan	nan	nan	nan	nan	nan	nan	nan	
